<svg xmlns="http://www.w3.org/2000/svg" xmlns:xlink="http://www.w3.org/1999/xlink" width="500" zoomAndPan="magnify" viewBox="0 0 375 374.999991" height="500" preserveAspectRatio="xMidYMid meet" version="1.0"><defs><clipPath id="e81aea6034"><path d="M 48.34375 120 L 269 120 L 269 264 L 48.34375 264 Z M 48.34375 120 " clip-rule="nonzero"/></clipPath><clipPath id="f2abde9134"><path d="M 206.292969 37.5 L 332 37.5 L 332 164 L 206.292969 164 Z M 206.292969 37.5 " clip-rule="nonzero"/></clipPath></defs><rect x="-37.5" width="450" fill="#ffffff" y="-37.499999" height="449.999989" fill-opacity="1"/><rect x="-37.5" width="450" fill="#ffffff" y="-37.499999" height="449.999989" fill-opacity="1"/><g clip-path="url(#e81aea6034)"><path fill="#242424" d="M 247.496094 158.371094 L 117.488281 158.371094 C 117.035156 158.371094 116.589844 158.417969 116.144531 158.503906 C 115.703125 158.59375 115.269531 158.722656 114.851562 158.894531 C 114.433594 159.070312 114.039062 159.28125 113.660156 159.53125 C 113.285156 159.785156 112.9375 160.070312 112.617188 160.390625 C 112.296875 160.710938 112.011719 161.058594 111.761719 161.433594 C 111.511719 161.808594 111.296875 162.207031 111.125 162.625 C 110.953125 163.042969 110.820312 163.472656 110.734375 163.914062 C 110.644531 164.359375 110.601562 164.808594 110.601562 165.257812 C 110.601562 165.710938 110.644531 166.160156 110.734375 166.601562 C 110.820312 167.046875 110.953125 167.476562 111.125 167.894531 C 111.296875 168.3125 111.511719 168.710938 111.761719 169.085938 C 112.011719 169.460938 112.296875 169.808594 112.617188 170.128906 C 112.9375 170.449219 113.285156 170.734375 113.660156 170.988281 C 114.039062 171.238281 114.433594 171.449219 114.851562 171.621094 C 115.269531 171.796875 115.703125 171.925781 116.144531 172.015625 C 116.589844 172.101562 117.035156 172.148438 117.488281 172.148438 L 247.496094 172.148438 C 247.8125 172.148438 248.128906 172.167969 248.445312 172.207031 C 248.761719 172.246094 249.070312 172.308594 249.378906 172.386719 C 249.6875 172.464844 249.988281 172.566406 250.28125 172.683594 C 250.578125 172.800781 250.863281 172.9375 251.140625 173.09375 C 251.417969 173.246094 251.6875 173.417969 251.941406 173.605469 C 252.199219 173.796875 252.441406 174 252.667969 174.21875 C 252.898438 174.4375 253.113281 174.671875 253.3125 174.917969 C 253.515625 175.167969 253.699219 175.425781 253.863281 175.695312 C 254.03125 175.964844 254.179688 176.246094 254.3125 176.535156 C 254.441406 176.824219 254.554688 177.121094 254.648438 177.425781 C 254.742188 177.726562 254.816406 178.035156 254.871094 178.347656 C 254.925781 178.664062 254.960938 178.976562 254.972656 179.296875 C 254.988281 179.613281 254.980469 179.929688 254.953125 180.246094 C 254.929688 180.5625 254.882812 180.875 254.816406 181.1875 C 254.75 181.496094 254.664062 181.804688 254.558594 182.101562 C 254.453125 182.402344 254.328125 182.695312 254.1875 182.976562 C 246.316406 198.777344 235.074219 234.019531 229.460938 245.234375 C 229.152344 245.855469 228.761719 246.421875 228.292969 246.933594 C 227.824219 247.449219 227.292969 247.886719 226.703125 248.25 C 226.113281 248.617188 225.484375 248.894531 224.816406 249.082031 C 224.148438 249.273438 223.464844 249.367188 222.769531 249.367188 L 127.058594 249.367188 C 126.308594 249.367188 125.574219 249.257812 124.859375 249.039062 C 124.140625 248.820312 123.472656 248.5 122.851562 248.078125 C 122.230469 247.65625 121.683594 247.152344 121.214844 246.566406 C 120.746094 245.984375 120.371094 245.34375 120.09375 244.644531 C 120.09375 244.566406 98.566406 147.980469 98.566406 147.980469 C 98.347656 147 98.089844 146.03125 97.789062 145.070312 C 97.492188 144.113281 97.152344 143.167969 96.773438 142.238281 C 96.394531 141.308594 95.976562 140.394531 95.519531 139.5 C 95.066406 138.605469 94.570312 137.734375 94.042969 136.878906 C 93.511719 136.027344 92.945312 135.199219 92.347656 134.390625 C 91.746094 133.585938 91.113281 132.808594 90.445312 132.054688 C 89.78125 131.304688 89.082031 130.582031 88.355469 129.890625 C 87.628906 129.195312 86.875 128.535156 86.089844 127.90625 C 85.308594 127.277344 84.5 126.683594 83.664062 126.125 C 82.832031 125.5625 81.976562 125.039062 81.097656 124.550781 C 80.222656 124.0625 79.324219 123.613281 78.410156 123.199219 C 77.492188 122.789062 76.5625 122.414062 75.613281 122.082031 C 74.664062 121.746094 73.707031 121.453125 72.734375 121.203125 C 71.761719 120.949219 70.78125 120.738281 69.789062 120.570312 C 68.800781 120.402344 67.804688 120.273438 66.804688 120.1875 C 65.804688 120.105469 64.800781 120.0625 63.796875 120.0625 L 55.238281 120.0625 C 54.78125 120.039062 54.324219 120.066406 53.871094 120.140625 C 53.417969 120.214844 52.976562 120.332031 52.550781 120.5 C 52.121094 120.664062 51.714844 120.875 51.332031 121.125 C 50.945312 121.375 50.589844 121.664062 50.265625 121.988281 C 49.941406 122.3125 49.65625 122.667969 49.402344 123.054688 C 49.152344 123.4375 48.945312 123.84375 48.78125 124.273438 C 48.613281 124.703125 48.496094 125.144531 48.421875 125.597656 C 48.347656 126.050781 48.324219 126.503906 48.34375 126.964844 C 48.34375 127.417969 48.390625 127.863281 48.480469 128.308594 C 48.570312 128.75 48.699219 129.179688 48.875 129.597656 C 49.046875 130.015625 49.257812 130.410156 49.511719 130.789062 C 49.761719 131.164062 50.046875 131.511719 50.367188 131.828125 C 50.6875 132.148438 51.035156 132.433594 51.410156 132.6875 C 51.785156 132.9375 52.179688 133.148438 52.597656 133.324219 C 53.015625 133.496094 53.445312 133.628906 53.890625 133.71875 C 54.332031 133.804688 54.78125 133.851562 55.230469 133.851562 L 63.796875 133.851562 C 65.03125 133.851562 66.253906 133.953125 67.46875 134.160156 C 68.683594 134.367188 69.875 134.675781 71.035156 135.085938 C 72.199219 135.492188 73.320312 135.996094 74.398438 136.59375 C 75.476562 137.191406 76.496094 137.875 77.457031 138.648438 C 78.421875 139.417969 79.3125 140.265625 80.128906 141.1875 C 80.949219 142.105469 81.683594 143.089844 82.335938 144.136719 C 82.988281 145.183594 83.550781 146.277344 84.015625 147.417969 C 84.484375 148.558594 84.851562 149.730469 85.121094 150.933594 L 106.710938 247.933594 C 106.765625 248.15625 106.832031 248.390625 106.902344 248.613281 C 107.25 249.664062 107.683594 250.679688 108.191406 251.664062 C 108.703125 252.648438 109.285156 253.585938 109.941406 254.480469 C 110.597656 255.371094 111.320312 256.207031 112.105469 256.988281 C 112.894531 257.769531 113.738281 258.484375 114.636719 259.128906 C 115.535156 259.777344 116.480469 260.351562 117.46875 260.851562 C 118.457031 261.351562 119.476562 261.773438 120.53125 262.113281 C 121.585938 262.453125 122.660156 262.710938 123.757812 262.882812 C 124.851562 263.054688 125.953125 263.140625 127.058594 263.144531 L 222.769531 263.144531 C 223.753906 263.144531 224.730469 263.074219 225.703125 262.9375 C 226.675781 262.804688 227.632812 262.601562 228.578125 262.332031 C 229.523438 262.066406 230.445312 261.730469 231.34375 261.335938 C 232.242188 260.941406 233.109375 260.484375 233.945312 259.96875 C 234.78125 259.449219 235.578125 258.878906 236.332031 258.253906 C 237.089844 257.625 237.796875 256.949219 238.460938 256.222656 C 239.121094 255.5 239.730469 254.730469 240.289062 253.921875 C 240.84375 253.113281 241.339844 252.269531 241.78125 251.390625 C 247.386719 240.171875 258.601562 204.949219 266.503906 189.132812 C 266.707031 188.730469 266.894531 188.320312 267.070312 187.90625 C 267.246094 187.492188 267.410156 187.070312 267.558594 186.648438 C 267.707031 186.222656 267.84375 185.792969 267.964844 185.359375 C 268.085938 184.921875 268.191406 184.488281 268.285156 184.046875 C 268.378906 183.605469 268.460938 183.160156 268.523438 182.714844 C 268.589844 182.269531 268.640625 181.824219 268.679688 181.375 C 268.714844 180.925781 268.738281 180.472656 268.746094 180.023438 C 268.757812 179.574219 268.75 179.121094 268.730469 178.671875 C 268.710938 178.222656 268.675781 177.773438 268.625 177.324219 C 268.578125 176.878906 268.515625 176.429688 268.4375 175.988281 C 268.359375 175.542969 268.269531 175.101562 268.164062 174.664062 C 268.058594 174.226562 267.941406 173.792969 267.808594 173.359375 C 267.675781 172.929688 267.527344 172.503906 267.367188 172.082031 C 267.207031 171.660156 267.035156 171.246094 266.847656 170.835938 C 266.664062 170.425781 266.464844 170.023438 266.25 169.625 C 266.039062 169.226562 265.816406 168.835938 265.578125 168.453125 C 265.339844 168.070312 265.09375 167.695312 264.832031 167.328125 C 264.570312 166.957031 264.296875 166.601562 264.015625 166.25 C 263.730469 165.898438 263.4375 165.558594 263.132812 165.226562 C 262.824219 164.894531 262.511719 164.574219 262.183594 164.261719 C 261.859375 163.953125 261.523438 163.652344 261.179688 163.359375 C 260.835938 163.070312 260.480469 162.792969 260.117188 162.523438 C 259.753906 162.257812 259.382812 162 259.003906 161.757812 C 258.625 161.511719 258.242188 161.28125 257.847656 161.0625 C 257.453125 160.84375 257.054688 160.636719 256.648438 160.441406 C 256.238281 160.246094 255.828125 160.066406 255.410156 159.898438 C 254.992188 159.730469 254.566406 159.578125 254.140625 159.4375 C 253.710938 159.296875 253.28125 159.167969 252.84375 159.054688 C 252.40625 158.941406 251.96875 158.84375 251.523438 158.757812 C 251.082031 158.671875 250.636719 158.601562 250.191406 158.542969 C 249.746094 158.484375 249.296875 158.441406 248.847656 158.414062 C 248.394531 158.386719 247.945312 158.371094 247.496094 158.371094 Z M 247.496094 158.371094 " fill-opacity="1" fill-rule="evenodd"/></g><path fill="#242424" d="M 134.546875 271.21875 C 133.625 271.21875 132.707031 271.265625 131.789062 271.355469 C 130.871094 271.445312 129.960938 271.578125 129.054688 271.757812 C 128.152344 271.941406 127.257812 272.164062 126.375 272.429688 C 125.496094 272.699219 124.628906 273.007812 123.777344 273.359375 C 122.925781 273.714844 122.09375 274.109375 121.28125 274.542969 C 120.46875 274.976562 119.675781 275.449219 118.910156 275.960938 C 118.144531 276.472656 117.40625 277.023438 116.691406 277.605469 C 115.980469 278.191406 115.296875 278.808594 114.648438 279.460938 C 113.996094 280.113281 113.375 280.796875 112.792969 281.507812 C 112.207031 282.222656 111.660156 282.960938 111.148438 283.726562 C 110.636719 284.492188 110.160156 285.28125 109.726562 286.097656 C 109.292969 286.910156 108.898438 287.742188 108.546875 288.59375 C 108.195312 289.445312 107.882812 290.3125 107.617188 291.191406 C 107.347656 292.074219 107.125 292.96875 106.945312 293.871094 C 106.765625 294.777344 106.632812 295.6875 106.539062 296.605469 C 106.449219 297.519531 106.40625 298.441406 106.40625 299.363281 C 106.40625 300.285156 106.449219 301.203125 106.542969 302.121094 C 106.632812 303.039062 106.765625 303.949219 106.945312 304.851562 C 107.125 305.757812 107.351562 306.648438 107.617188 307.53125 C 107.886719 308.414062 108.195312 309.28125 108.546875 310.132812 C 108.902344 310.984375 109.296875 311.816406 109.730469 312.628906 C 110.164062 313.441406 110.636719 314.230469 111.148438 314.996094 C 111.664062 315.761719 112.210938 316.503906 112.796875 317.214844 C 113.378906 317.925781 114 318.609375 114.652344 319.261719 C 115.300781 319.914062 115.984375 320.53125 116.695312 321.117188 C 117.410156 321.699219 118.148438 322.25 118.914062 322.761719 C 119.683594 323.273438 120.472656 323.746094 121.285156 324.179688 C 122.097656 324.613281 122.929688 325.007812 123.78125 325.359375 C 124.632812 325.714844 125.5 326.023438 126.382812 326.289062 C 127.265625 326.558594 128.15625 326.78125 129.0625 326.960938 C 129.964844 327.140625 130.875 327.277344 131.792969 327.367188 C 132.710938 327.457031 133.628906 327.5 134.550781 327.5 C 135.472656 327.5 136.394531 327.457031 137.308594 327.363281 C 138.226562 327.273438 139.136719 327.140625 140.042969 326.957031 C 140.945312 326.777344 141.839844 326.554688 142.71875 326.289062 C 143.601562 326.019531 144.46875 325.710938 145.320312 325.355469 C 146.171875 325.003906 147.003906 324.609375 147.816406 324.175781 C 148.628906 323.742188 149.417969 323.265625 150.1875 322.753906 C 150.953125 322.242188 151.691406 321.695312 152.402344 321.109375 C 153.117188 320.523438 153.796875 319.90625 154.449219 319.253906 C 155.101562 318.601562 155.71875 317.917969 156.304688 317.207031 C 156.886719 316.496094 157.4375 315.753906 157.949219 314.988281 C 158.460938 314.222656 158.933594 313.433594 159.367188 312.617188 C 159.800781 311.804688 160.195312 310.972656 160.546875 310.121094 C 160.898438 309.269531 161.210938 308.402344 161.476562 307.523438 C 161.746094 306.640625 161.96875 305.746094 162.148438 304.84375 C 162.328125 303.9375 162.460938 303.027344 162.550781 302.109375 C 162.640625 301.191406 162.6875 300.273438 162.6875 299.351562 C 162.6875 298.429688 162.640625 297.511719 162.550781 296.59375 C 162.457031 295.679688 162.324219 294.769531 162.140625 293.863281 C 161.960938 292.960938 161.738281 292.066406 161.46875 291.1875 C 161.203125 290.304688 160.890625 289.4375 160.539062 288.585938 C 160.1875 287.738281 159.792969 286.90625 159.355469 286.09375 C 158.921875 285.28125 158.449219 284.492188 157.9375 283.726562 C 157.425781 282.960938 156.875 282.21875 156.292969 281.507812 C 155.707031 280.796875 155.089844 280.113281 154.4375 279.464844 C 153.785156 278.8125 153.105469 278.195312 152.390625 277.609375 C 151.679688 277.023438 150.941406 276.476562 150.175781 275.964844 C 149.410156 275.453125 148.617188 274.980469 147.804688 274.546875 C 146.992188 274.109375 146.164062 273.71875 145.3125 273.363281 C 144.460938 273.011719 143.59375 272.703125 142.710938 272.433594 C 141.832031 272.167969 140.9375 271.941406 140.035156 271.761719 C 139.128906 271.582031 138.21875 271.445312 137.304688 271.355469 C 136.386719 271.265625 135.46875 271.21875 134.546875 271.21875 Z M 134.546875 313.726562 C 133.601562 313.726562 132.667969 313.632812 131.742188 313.449219 C 130.820312 313.265625 129.921875 312.992188 129.050781 312.632812 C 128.179688 312.269531 127.351562 311.828125 126.566406 311.304688 C 125.78125 310.78125 125.054688 310.1875 124.390625 309.519531 C 123.722656 308.851562 123.125 308.125 122.601562 307.34375 C 122.078125 306.558594 121.636719 305.730469 121.273438 304.859375 C 120.914062 303.988281 120.640625 303.089844 120.457031 302.164062 C 120.273438 301.238281 120.179688 300.304688 120.179688 299.363281 C 120.179688 298.417969 120.273438 297.484375 120.457031 296.558594 C 120.640625 295.636719 120.914062 294.738281 121.273438 293.867188 C 121.632812 292.992188 122.074219 292.164062 122.601562 291.382812 C 123.125 290.597656 123.71875 289.871094 124.386719 289.203125 C 125.050781 288.539062 125.777344 287.941406 126.5625 287.417969 C 127.34375 286.894531 128.171875 286.449219 129.042969 286.089844 C 129.914062 285.726562 130.8125 285.457031 131.738281 285.269531 C 132.664062 285.085938 133.597656 284.996094 134.542969 284.996094 C 135.484375 284.992188 136.417969 285.085938 137.34375 285.269531 C 138.269531 285.453125 139.167969 285.726562 140.039062 286.085938 C 140.910156 286.445312 141.738281 286.886719 142.523438 287.410156 C 143.308594 287.933594 144.03125 288.53125 144.699219 289.195312 C 145.367188 289.863281 145.960938 290.589844 146.488281 291.371094 C 147.011719 292.15625 147.453125 292.984375 147.816406 293.855469 C 148.175781 294.726562 148.449219 295.625 148.632812 296.550781 C 148.820312 297.476562 148.910156 298.410156 148.910156 299.351562 C 148.910156 300.296875 148.820312 301.230469 148.632812 302.15625 C 148.449219 303.078125 148.175781 303.976562 147.816406 304.847656 C 147.457031 305.722656 147.011719 306.546875 146.488281 307.332031 C 145.964844 308.117188 145.371094 308.84375 144.703125 309.511719 C 144.035156 310.175781 143.308594 310.773438 142.527344 311.296875 C 141.742188 311.824219 140.914062 312.265625 140.042969 312.628906 C 139.171875 312.988281 138.273438 313.261719 137.347656 313.445312 C 136.421875 313.632812 135.488281 313.722656 134.546875 313.726562 Z M 134.546875 313.726562 " fill-opacity="1" fill-rule="evenodd"/><path fill="#242424" d="M 212.980469 271.21875 C 212.058594 271.21875 211.136719 271.265625 210.21875 271.355469 C 209.304688 271.445312 208.390625 271.578125 207.488281 271.757812 C 206.585938 271.941406 205.691406 272.164062 204.808594 272.429688 C 203.925781 272.699219 203.0625 273.007812 202.210938 273.359375 C 201.359375 273.714844 200.523438 274.109375 199.710938 274.542969 C 198.898438 274.976562 198.109375 275.449219 197.34375 275.960938 C 196.578125 276.472656 195.835938 277.023438 195.125 277.605469 C 194.414062 278.191406 193.730469 278.808594 193.078125 279.460938 C 192.425781 280.113281 191.808594 280.796875 191.222656 281.507812 C 190.640625 282.222656 190.089844 282.960938 189.578125 283.726562 C 189.066406 284.492188 188.59375 285.28125 188.160156 286.097656 C 187.726562 286.910156 187.332031 287.742188 186.980469 288.59375 C 186.625 289.445312 186.316406 290.3125 186.050781 291.191406 C 185.78125 292.074219 185.558594 292.96875 185.378906 293.871094 C 185.199219 294.777344 185.0625 295.6875 184.972656 296.605469 C 184.882812 297.519531 184.835938 298.441406 184.835938 299.363281 C 184.835938 300.285156 184.882812 301.203125 184.972656 302.121094 C 185.0625 303.039062 185.199219 303.949219 185.378906 304.851562 C 185.558594 305.757812 185.78125 306.648438 186.050781 307.53125 C 186.316406 308.414062 186.628906 309.28125 186.980469 310.132812 C 187.332031 310.984375 187.726562 311.816406 188.164062 312.628906 C 188.597656 313.441406 189.070312 314.230469 189.582031 314.996094 C 190.09375 315.761719 190.644531 316.503906 191.226562 317.214844 C 191.8125 317.925781 192.429688 318.609375 193.082031 319.261719 C 193.734375 319.914062 194.417969 320.53125 195.128906 321.117188 C 195.84375 321.699219 196.582031 322.25 197.347656 322.761719 C 198.113281 323.273438 198.902344 323.746094 199.71875 324.179688 C 200.53125 324.613281 201.363281 325.007812 202.214844 325.359375 C 203.066406 325.714844 203.933594 326.023438 204.8125 326.289062 C 205.695312 326.558594 206.589844 326.78125 207.492188 326.960938 C 208.398438 327.140625 209.308594 327.277344 210.226562 327.367188 C 211.144531 327.457031 212.0625 327.5 212.984375 327.5 C 213.90625 327.5 214.824219 327.457031 215.742188 327.363281 C 216.660156 327.273438 217.570312 327.140625 218.472656 326.957031 C 219.378906 326.777344 220.269531 326.554688 221.152344 326.289062 C 222.035156 326.019531 222.902344 325.710938 223.753906 325.355469 C 224.605469 325.003906 225.4375 324.609375 226.25 324.175781 C 227.0625 323.742188 227.851562 323.265625 228.617188 322.753906 C 229.382812 322.242188 230.125 321.695312 230.835938 321.109375 C 231.546875 320.523438 232.230469 319.90625 232.882812 319.253906 C 233.535156 318.601562 234.152344 317.917969 234.734375 317.207031 C 235.320312 316.496094 235.867188 315.753906 236.378906 314.988281 C 236.894531 314.222656 237.367188 313.433594 237.800781 312.617188 C 238.234375 311.804688 238.628906 310.972656 238.980469 310.121094 C 239.332031 309.269531 239.644531 308.402344 239.910156 307.523438 C 240.175781 306.640625 240.402344 305.746094 240.582031 304.84375 C 240.761719 303.9375 240.894531 303.027344 240.984375 302.109375 C 241.074219 301.191406 241.121094 300.273438 241.121094 299.351562 C 241.117188 298.429688 241.074219 297.511719 240.984375 296.59375 C 240.890625 295.675781 240.757812 294.765625 240.578125 293.863281 C 240.394531 292.960938 240.171875 292.066406 239.902344 291.1875 C 239.636719 290.304688 239.324219 289.4375 238.972656 288.585938 C 238.621094 287.734375 238.226562 286.902344 237.792969 286.089844 C 237.355469 285.277344 236.882812 284.488281 236.371094 283.722656 C 235.859375 282.957031 235.3125 282.21875 234.726562 281.507812 C 234.140625 280.792969 233.523438 280.113281 232.871094 279.460938 C 232.21875 278.808594 231.539062 278.191406 230.828125 277.605469 C 230.113281 277.023438 229.375 276.472656 228.609375 275.960938 C 227.84375 275.449219 227.054688 274.976562 226.242188 274.542969 C 225.429688 274.109375 224.597656 273.714844 223.746094 273.363281 C 222.894531 273.007812 222.027344 272.699219 221.144531 272.433594 C 220.261719 272.164062 219.371094 271.941406 218.46875 271.761719 C 217.5625 271.582031 216.652344 271.445312 215.734375 271.355469 C 214.820312 271.265625 213.898438 271.21875 212.980469 271.21875 Z M 212.980469 313.726562 C 212.035156 313.726562 211.101562 313.632812 210.175781 313.449219 C 209.25 313.265625 208.351562 312.992188 207.480469 312.632812 C 206.609375 312.269531 205.78125 311.828125 205 311.304688 C 204.214844 310.78125 203.488281 310.1875 202.820312 309.519531 C 202.15625 308.851562 201.558594 308.125 201.035156 307.34375 C 200.511719 306.558594 200.070312 305.730469 199.707031 304.859375 C 199.347656 303.988281 199.074219 303.089844 198.890625 302.164062 C 198.707031 301.238281 198.613281 300.304688 198.613281 299.363281 C 198.613281 298.417969 198.703125 297.484375 198.886719 296.558594 C 199.074219 295.636719 199.34375 294.738281 199.707031 293.867188 C 200.066406 292.992188 200.507812 292.164062 201.03125 291.382812 C 201.554688 290.597656 202.152344 289.871094 202.816406 289.203125 C 203.484375 288.539062 204.210938 287.941406 204.992188 287.417969 C 205.777344 286.894531 206.605469 286.449219 207.476562 286.089844 C 208.347656 285.726562 209.246094 285.457031 210.171875 285.269531 C 211.097656 285.085938 212.03125 284.996094 212.972656 284.996094 C 213.917969 284.992188 214.851562 285.085938 215.777344 285.269531 C 216.699219 285.453125 217.597656 285.726562 218.472656 286.085938 C 219.34375 286.445312 220.171875 286.886719 220.953125 287.410156 C 221.738281 287.933594 222.464844 288.53125 223.132812 289.195312 C 223.800781 289.863281 224.394531 290.589844 224.917969 291.371094 C 225.445312 292.15625 225.886719 292.984375 226.246094 293.855469 C 226.609375 294.726562 226.882812 295.625 227.066406 296.550781 C 227.25 297.476562 227.34375 298.410156 227.34375 299.351562 C 227.34375 300.296875 227.25 301.230469 227.066406 302.15625 C 226.882812 303.078125 226.609375 303.976562 226.25 304.847656 C 225.886719 305.722656 225.445312 306.546875 224.921875 307.332031 C 224.398438 308.117188 223.800781 308.84375 223.136719 309.511719 C 222.46875 310.175781 221.742188 310.773438 220.957031 311.296875 C 220.175781 311.824219 219.347656 312.265625 218.476562 312.628906 C 217.605469 312.988281 216.707031 313.261719 215.78125 313.445312 C 214.855469 313.632812 213.921875 313.722656 212.980469 313.726562 Z M 212.980469 313.726562 " fill-opacity="1" fill-rule="evenodd"/><g clip-path="url(#f2abde9134)"><path fill="#242424" d="M 257.554688 37.726562 C 229.121094 38.039062 206.320312 61.347656 206.632812 89.785156 C 206.945312 118.214844 230.25 141.015625 258.6875 140.703125 C 269.1875 140.589844 279.402344 137.265625 287.964844 131.175781 L 317.375 160.578125 C 320.742188 163.902344 326.171875 163.867188 329.496094 160.496094 C 332.785156 157.160156 332.785156 151.796875 329.496094 148.457031 L 300.085938 119.054688 C 316.566406 95.882812 311.140625 63.734375 287.964844 47.25 C 279.089844 40.941406 268.445312 37.609375 257.554688 37.726562 Z M 256.9375 46.640625 C 280.417969 45.984375 299.988281 64.484375 300.644531 87.972656 C 300.65625 88.382812 300.664062 88.796875 300.664062 89.210938 C 300.671875 112.703125 281.632812 131.753906 258.144531 131.769531 C 234.652344 131.777344 215.597656 112.742188 215.585938 89.25 C 215.585938 89.238281 215.585938 89.226562 215.585938 89.210938 C 215.5625 66.164062 233.894531 47.285156 256.9375 46.640625 Z M 256.9375 46.640625 " fill-opacity="1" fill-rule="nonzero"/></g><path fill="#242424" d="M 246.640625 57.664062 C 248.96875 56.832031 251.53125 58.039062 252.367188 60.371094 C 253.195312 62.679688 252.007812 65.230469 249.703125 66.082031 C 239.976562 69.621094 233.503906 78.867188 233.503906 89.214844 C 233.503906 91.6875 231.5 93.695312 229.027344 93.695312 C 226.554688 93.695312 224.550781 91.6875 224.550781 89.214844 C 224.550781 75.101562 233.378906 62.492188 246.640625 57.664062 Z M 246.640625 57.664062 " fill-opacity="1" fill-rule="nonzero"/></svg>